<mxfile host="Electron" modified="2024-12-10T06:26:24.682Z" agent="Mozilla/5.0 (Windows NT 10.0; Win64; x64) AppleWebKit/537.36 (KHTML, like Gecko) draw.io/23.1.5 Chrome/120.0.6099.109 Electron/28.1.0 Safari/537.36" etag="b0y0_3HqoH16qnwVTmpP" version="23.1.5" type="device">
  <diagram name="Page-1" id="IVNgnnqncGLxBXjI2ZBZ">
    <mxGraphModel dx="1292" dy="728" grid="1" gridSize="10" guides="1" tooltips="1" connect="1" arrows="1" fold="1" page="1" pageScale="1" pageWidth="850" pageHeight="1100" math="0" shadow="0">
      <root>
        <mxCell id="0" />
        <mxCell id="1" parent="0" />
        <mxCell id="LlizrEOh4emh3B1AcPMM-3" value="" style="edgeStyle=orthogonalEdgeStyle;rounded=0;orthogonalLoop=1;jettySize=auto;html=1;" edge="1" parent="1" source="LlizrEOh4emh3B1AcPMM-1" target="LlizrEOh4emh3B1AcPMM-2">
          <mxGeometry relative="1" as="geometry" />
        </mxCell>
        <mxCell id="LlizrEOh4emh3B1AcPMM-1" value="ESP32 (Web server)&lt;br&gt;START" style="rounded=1;whiteSpace=wrap;html=1;" vertex="1" parent="1">
          <mxGeometry x="128" y="20" width="120" height="60" as="geometry" />
        </mxCell>
        <mxCell id="LlizrEOh4emh3B1AcPMM-5" value="" style="edgeStyle=orthogonalEdgeStyle;rounded=0;orthogonalLoop=1;jettySize=auto;html=1;" edge="1" parent="1" source="LlizrEOh4emh3B1AcPMM-2" target="LlizrEOh4emh3B1AcPMM-4">
          <mxGeometry relative="1" as="geometry" />
        </mxCell>
        <mxCell id="LlizrEOh4emh3B1AcPMM-2" value="ESP32&lt;br&gt;Capture Image" style="whiteSpace=wrap;html=1;rounded=1;" vertex="1" parent="1">
          <mxGeometry x="128" y="160" width="120" height="60" as="geometry" />
        </mxCell>
        <mxCell id="LlizrEOh4emh3B1AcPMM-4" value="ESP32 Create endpoint to GET image (Restful API)" style="whiteSpace=wrap;html=1;rounded=1;" vertex="1" parent="1">
          <mxGeometry x="103" y="300" width="170" height="75" as="geometry" />
        </mxCell>
        <mxCell id="LlizrEOh4emh3B1AcPMM-8" value="" style="edgeStyle=orthogonalEdgeStyle;rounded=0;orthogonalLoop=1;jettySize=auto;html=1;" edge="1" parent="1" source="LlizrEOh4emh3B1AcPMM-6" target="LlizrEOh4emh3B1AcPMM-7">
          <mxGeometry relative="1" as="geometry" />
        </mxCell>
        <mxCell id="LlizrEOh4emh3B1AcPMM-6" value="&lt;p align=&quot;center&quot; class=&quot;MsoNormal&quot;&gt;Processing Server (Laptop) START&lt;/p&gt;" style="rounded=1;whiteSpace=wrap;html=1;" vertex="1" parent="1">
          <mxGeometry x="350" y="20" width="150" height="60" as="geometry" />
        </mxCell>
        <mxCell id="LlizrEOh4emh3B1AcPMM-10" value="" style="edgeStyle=orthogonalEdgeStyle;rounded=0;orthogonalLoop=1;jettySize=auto;html=1;" edge="1" parent="1" source="LlizrEOh4emh3B1AcPMM-7" target="LlizrEOh4emh3B1AcPMM-9">
          <mxGeometry relative="1" as="geometry" />
        </mxCell>
        <mxCell id="LlizrEOh4emh3B1AcPMM-7" value="App (python)&lt;br&gt;START" style="whiteSpace=wrap;html=1;rounded=1;" vertex="1" parent="1">
          <mxGeometry x="365" y="160" width="120" height="60" as="geometry" />
        </mxCell>
        <mxCell id="LlizrEOh4emh3B1AcPMM-18" value="" style="edgeStyle=orthogonalEdgeStyle;rounded=0;orthogonalLoop=1;jettySize=auto;html=1;" edge="1" parent="1" source="LlizrEOh4emh3B1AcPMM-9" target="LlizrEOh4emh3B1AcPMM-17">
          <mxGeometry relative="1" as="geometry" />
        </mxCell>
        <mxCell id="LlizrEOh4emh3B1AcPMM-9" value="Send request to get image from web server&amp;nbsp;&lt;br&gt;(using Urllib)" style="whiteSpace=wrap;html=1;rounded=1;" vertex="1" parent="1">
          <mxGeometry x="348" y="300" width="155" height="80" as="geometry" />
        </mxCell>
        <mxCell id="LlizrEOh4emh3B1AcPMM-11" value="" style="endArrow=classic;html=1;rounded=0;exitX=0;exitY=0.25;exitDx=0;exitDy=0;entryX=1;entryY=0.25;entryDx=0;entryDy=0;" edge="1" parent="1" source="LlizrEOh4emh3B1AcPMM-9" target="LlizrEOh4emh3B1AcPMM-4">
          <mxGeometry width="50" height="50" relative="1" as="geometry">
            <mxPoint x="348" y="282.5" as="sourcePoint" />
            <mxPoint x="255" y="280" as="targetPoint" />
          </mxGeometry>
        </mxCell>
        <mxCell id="LlizrEOh4emh3B1AcPMM-12" value="Request&lt;div&gt;&lt;br/&gt;&lt;/div&gt;" style="text;html=1;align=center;verticalAlign=middle;resizable=0;points=[];autosize=1;strokeColor=none;fillColor=none;" vertex="1" parent="1">
          <mxGeometry x="278" y="290" width="70" height="40" as="geometry" />
        </mxCell>
        <mxCell id="LlizrEOh4emh3B1AcPMM-15" value="" style="endArrow=classic;html=1;rounded=0;exitX=1;exitY=0.84;exitDx=0;exitDy=0;exitPerimeter=0;entryX=0;entryY=0.75;entryDx=0;entryDy=0;" edge="1" parent="1" source="LlizrEOh4emh3B1AcPMM-4" target="LlizrEOh4emh3B1AcPMM-9">
          <mxGeometry width="50" height="50" relative="1" as="geometry">
            <mxPoint x="400" y="330" as="sourcePoint" />
            <mxPoint x="450" y="280" as="targetPoint" />
          </mxGeometry>
        </mxCell>
        <mxCell id="LlizrEOh4emh3B1AcPMM-16" value="GET&lt;div&gt;&lt;br/&gt;&lt;/div&gt;" style="text;html=1;align=center;verticalAlign=middle;resizable=0;points=[];autosize=1;strokeColor=none;fillColor=none;" vertex="1" parent="1">
          <mxGeometry x="280" y="360" width="50" height="40" as="geometry" />
        </mxCell>
        <mxCell id="LlizrEOh4emh3B1AcPMM-20" value="" style="edgeStyle=orthogonalEdgeStyle;rounded=0;orthogonalLoop=1;jettySize=auto;html=1;" edge="1" parent="1" source="LlizrEOh4emh3B1AcPMM-17" target="LlizrEOh4emh3B1AcPMM-19">
          <mxGeometry relative="1" as="geometry" />
        </mxCell>
        <mxCell id="LlizrEOh4emh3B1AcPMM-24" value="" style="edgeStyle=orthogonalEdgeStyle;rounded=0;orthogonalLoop=1;jettySize=auto;html=1;" edge="1" parent="1" source="LlizrEOh4emh3B1AcPMM-17" target="LlizrEOh4emh3B1AcPMM-23">
          <mxGeometry relative="1" as="geometry" />
        </mxCell>
        <mxCell id="LlizrEOh4emh3B1AcPMM-17" value="&lt;p class=&quot;MsoNormal&quot;&gt;&amp;nbsp;Process image and classification&amp;nbsp;&lt;/p&gt;&lt;p class=&quot;MsoNormal&quot;&gt;(using OpenCV)&lt;/p&gt;" style="whiteSpace=wrap;html=1;rounded=1;" vertex="1" parent="1">
          <mxGeometry x="343" y="450" width="164.5" height="60" as="geometry" />
        </mxCell>
        <mxCell id="LlizrEOh4emh3B1AcPMM-19" value="&lt;p class=&quot;MsoNormal&quot;&gt;Save data to&lt;br&gt;json file&lt;/p&gt;&lt;p class=&quot;MsoNormal&quot;&gt;&lt;span style=&quot;text-indent: 0.5in; background-color: initial;&quot;&gt;(using Jsontify)&lt;/span&gt;&lt;/p&gt;" style="whiteSpace=wrap;html=1;rounded=1;" vertex="1" parent="1">
          <mxGeometry x="328.13" y="560" width="194.75" height="60" as="geometry" />
        </mxCell>
        <mxCell id="LlizrEOh4emh3B1AcPMM-27" value="" style="edgeStyle=orthogonalEdgeStyle;rounded=0;orthogonalLoop=1;jettySize=auto;html=1;" edge="1" parent="1" source="LlizrEOh4emh3B1AcPMM-21" target="LlizrEOh4emh3B1AcPMM-26">
          <mxGeometry relative="1" as="geometry" />
        </mxCell>
        <mxCell id="LlizrEOh4emh3B1AcPMM-21" value="UNO board recive command" style="whiteSpace=wrap;html=1;rounded=1;" vertex="1" parent="1">
          <mxGeometry x="729" y="450" width="120" height="60" as="geometry" />
        </mxCell>
        <mxCell id="LlizrEOh4emh3B1AcPMM-25" value="" style="edgeStyle=orthogonalEdgeStyle;rounded=0;orthogonalLoop=1;jettySize=auto;html=1;" edge="1" parent="1" source="LlizrEOh4emh3B1AcPMM-23" target="LlizrEOh4emh3B1AcPMM-21">
          <mxGeometry relative="1" as="geometry" />
        </mxCell>
        <mxCell id="LlizrEOh4emh3B1AcPMM-23" value="&lt;font style=&quot;font-size: 12px;&quot;&gt;Sending&lt;span style=&quot;font-family: &amp;quot;Segoe UI Web (West European)&amp;quot;, &amp;quot;Segoe UI&amp;quot;, -apple-system, BlinkMacSystemFont, Roboto, &amp;quot;Helvetica Neue&amp;quot;, sans-serif; text-align: start; background-color: rgb(239, 246, 255);&quot;&gt;&amp;nbsp;&lt;/span&gt;&lt;span style=&quot;font-family: &amp;quot;Segoe UI Web (West European)&amp;quot;, &amp;quot;Segoe UI&amp;quot;, -apple-system, BlinkMacSystemFont, Roboto, &amp;quot;Helvetica Neue&amp;quot;, sans-serif; text-align: start; background-color: rgb(251, 251, 251);&quot;&gt;command&lt;/span&gt;&lt;span style=&quot;font-family: &amp;quot;Segoe UI Web (West European)&amp;quot;, &amp;quot;Segoe UI&amp;quot;, -apple-system, BlinkMacSystemFont, Roboto, &amp;quot;Helvetica Neue&amp;quot;, sans-serif; text-align: start; background-color: rgb(239, 246, 255);&quot;&gt;&amp;nbsp;to Uno board&amp;nbsp;&lt;/span&gt;&lt;span style=&quot;font-family: &amp;quot;Segoe UI Web (West European)&amp;quot;, &amp;quot;Segoe UI&amp;quot;, -apple-system, BlinkMacSystemFont, Roboto, &amp;quot;Helvetica Neue&amp;quot;, sans-serif; text-align: start; background-color: transparent;&quot; data-is-focusable=&quot;true&quot; id=&quot;tgtAlignment_2&quot; class=&quot;ts-alignment-element&quot;&gt;based&lt;/span&gt;&lt;span style=&quot;font-family: &amp;quot;Segoe UI Web (West European)&amp;quot;, &amp;quot;Segoe UI&amp;quot;, -apple-system, BlinkMacSystemFont, Roboto, &amp;quot;Helvetica Neue&amp;quot;, sans-serif; text-align: start; background-color: rgb(239, 246, 255);&quot;&gt; &lt;/span&gt;&lt;span style=&quot;font-family: &amp;quot;Segoe UI Web (West European)&amp;quot;, &amp;quot;Segoe UI&amp;quot;, -apple-system, BlinkMacSystemFont, Roboto, &amp;quot;Helvetica Neue&amp;quot;, sans-serif; text-align: start; background-color: transparent;&quot; data-is-focusable=&quot;true&quot; id=&quot;tgtAlignment_3&quot; class=&quot;ts-alignment-element&quot;&gt;on&lt;/span&gt;&lt;span style=&quot;font-family: &amp;quot;Segoe UI Web (West European)&amp;quot;, &amp;quot;Segoe UI&amp;quot;, -apple-system, BlinkMacSystemFont, Roboto, &amp;quot;Helvetica Neue&amp;quot;, sans-serif; text-align: start; background-color: rgb(239, 246, 255);&quot;&gt; &lt;/span&gt;&lt;span style=&quot;font-family: &amp;quot;Segoe UI Web (West European)&amp;quot;, &amp;quot;Segoe UI&amp;quot;, -apple-system, BlinkMacSystemFont, Roboto, &amp;quot;Helvetica Neue&amp;quot;, sans-serif; text-align: start; background-color: transparent;&quot; data-is-focusable=&quot;true&quot; id=&quot;tgtAlignment_4&quot; class=&quot;ts-alignment-element&quot;&gt;classification&lt;/span&gt;&lt;span style=&quot;font-family: &amp;quot;Segoe UI Web (West European)&amp;quot;, &amp;quot;Segoe UI&amp;quot;, -apple-system, BlinkMacSystemFont, Roboto, &amp;quot;Helvetica Neue&amp;quot;, sans-serif; text-align: start; background-color: rgb(239, 246, 255);&quot;&gt; &lt;/span&gt;&lt;span style=&quot;font-family: &amp;quot;Segoe UI Web (West European)&amp;quot;, &amp;quot;Segoe UI&amp;quot;, -apple-system, BlinkMacSystemFont, Roboto, &amp;quot;Helvetica Neue&amp;quot;, sans-serif; text-align: start; background-color: transparent;&quot; data-is-focusable=&quot;true&quot; id=&quot;tgtAlignment_5&quot; class=&quot;ts-alignment-element&quot;&gt;results.&lt;br&gt;Orgainic or Inorganic&lt;br&gt;(Using Pyserial)&lt;br&gt;&lt;/span&gt;&lt;/font&gt;" style="whiteSpace=wrap;html=1;rounded=1;" vertex="1" parent="1">
          <mxGeometry x="560" y="425" width="140" height="110" as="geometry" />
        </mxCell>
        <mxCell id="LlizrEOh4emh3B1AcPMM-45" value="" style="edgeStyle=orthogonalEdgeStyle;rounded=0;orthogonalLoop=1;jettySize=auto;html=1;" edge="1" parent="1" source="LlizrEOh4emh3B1AcPMM-26" target="LlizrEOh4emh3B1AcPMM-44">
          <mxGeometry relative="1" as="geometry" />
        </mxCell>
        <mxCell id="LlizrEOh4emh3B1AcPMM-26" value="&lt;font style=&quot;font-size: 12px;&quot;&gt;Servo&lt;span style=&quot;font-family: &amp;quot;Segoe UI Web (West European)&amp;quot;, &amp;quot;Segoe UI&amp;quot;, -apple-system, BlinkMacSystemFont, Roboto, &amp;quot;Helvetica Neue&amp;quot;, sans-serif; text-align: start; background-color: rgb(239, 246, 255);&quot;&gt; &lt;/span&gt;&lt;span style=&quot;font-family: &amp;quot;Segoe UI Web (West European)&amp;quot;, &amp;quot;Segoe UI&amp;quot;, -apple-system, BlinkMacSystemFont, Roboto, &amp;quot;Helvetica Neue&amp;quot;, sans-serif; text-align: start; background-color: transparent;&quot; data-is-focusable=&quot;true&quot; id=&quot;tgtAlignment_1&quot; class=&quot;ts-alignment-element&quot;&gt;3&lt;/span&gt;&lt;span style=&quot;font-family: &amp;quot;Segoe UI Web (West European)&amp;quot;, &amp;quot;Segoe UI&amp;quot;, -apple-system, BlinkMacSystemFont, Roboto, &amp;quot;Helvetica Neue&amp;quot;, sans-serif; text-align: start; background-color: rgb(239, 246, 255);&quot;&gt; &lt;/span&gt;&lt;span style=&quot;font-family: &amp;quot;Segoe UI Web (West European)&amp;quot;, &amp;quot;Segoe UI&amp;quot;, -apple-system, BlinkMacSystemFont, Roboto, &amp;quot;Helvetica Neue&amp;quot;, sans-serif; text-align: start; background-color: transparent;&quot; data-is-focusable=&quot;true&quot; id=&quot;tgtAlignment_2&quot; class=&quot;ts-alignment-element&quot;&gt;push&lt;/span&gt;&lt;span style=&quot;font-family: &amp;quot;Segoe UI Web (West European)&amp;quot;, &amp;quot;Segoe UI&amp;quot;, -apple-system, BlinkMacSystemFont, Roboto, &amp;quot;Helvetica Neue&amp;quot;, sans-serif; text-align: start; background-color: rgb(239, 246, 255);&quot;&gt;&amp;nbsp;&lt;/span&gt;&lt;span style=&quot;font-family: &amp;quot;Segoe UI Web (West European)&amp;quot;, &amp;quot;Segoe UI&amp;quot;, -apple-system, BlinkMacSystemFont, Roboto, &amp;quot;Helvetica Neue&amp;quot;, sans-serif; text-align: start; background-color: transparent;&quot; data-is-focusable=&quot;true&quot; id=&quot;tgtAlignment_3&quot; class=&quot;ts-alignment-element&quot;&gt;object&lt;/span&gt;&lt;span style=&quot;font-family: &amp;quot;Segoe UI Web (West European)&amp;quot;, &amp;quot;Segoe UI&amp;quot;, -apple-system, BlinkMacSystemFont, Roboto, &amp;quot;Helvetica Neue&amp;quot;, sans-serif; text-align: start; background-color: rgb(239, 246, 255);&quot;&gt;&amp;nbsp;to&amp;nbsp;&lt;/span&gt;&lt;span style=&quot;font-family: &amp;quot;Segoe UI Web (West European)&amp;quot;, &amp;quot;Segoe UI&amp;quot;, -apple-system, BlinkMacSystemFont, Roboto, &amp;quot;Helvetica Neue&amp;quot;, sans-serif; text-align: start; background-color: transparent;&quot; data-is-focusable=&quot;true&quot; id=&quot;tgtAlignment_5&quot; class=&quot;ts-alignment-element&quot;&gt;conveyor&lt;/span&gt;&lt;span style=&quot;font-family: &amp;quot;Segoe UI Web (West European)&amp;quot;, &amp;quot;Segoe UI&amp;quot;, -apple-system, BlinkMacSystemFont, Roboto, &amp;quot;Helvetica Neue&amp;quot;, sans-serif; text-align: start; background-color: rgb(239, 246, 255);&quot;&gt; &lt;/span&gt;&lt;span style=&quot;font-family: &amp;quot;Segoe UI Web (West European)&amp;quot;, &amp;quot;Segoe UI&amp;quot;, -apple-system, BlinkMacSystemFont, Roboto, &amp;quot;Helvetica Neue&amp;quot;, sans-serif; text-align: start; background-color: transparent;&quot; data-is-focusable=&quot;true&quot; id=&quot;tgtAlignment_6&quot; class=&quot;ts-alignment-element&quot;&gt;belt&lt;/span&gt;&lt;/font&gt;" style="whiteSpace=wrap;html=1;rounded=1;" vertex="1" parent="1">
          <mxGeometry x="714" y="590" width="150" height="70" as="geometry" />
        </mxCell>
        <mxCell id="LlizrEOh4emh3B1AcPMM-28" value="Activate servo 1 if command is &#39;Organic&#39;,&lt;br&gt;Activate servo 2 if command is &#39;Inorganic&#39;" style="whiteSpace=wrap;html=1;rounded=1;" vertex="1" parent="1">
          <mxGeometry x="709" y="830" width="160" height="70" as="geometry" />
        </mxCell>
        <mxCell id="LlizrEOh4emh3B1AcPMM-41" value="" style="edgeStyle=orthogonalEdgeStyle;rounded=0;orthogonalLoop=1;jettySize=auto;html=1;" edge="1" parent="1" source="LlizrEOh4emh3B1AcPMM-30" target="LlizrEOh4emh3B1AcPMM-40">
          <mxGeometry relative="1" as="geometry" />
        </mxCell>
        <mxCell id="LlizrEOh4emh3B1AcPMM-30" value="Arduino UNO R3&amp;nbsp;&lt;br&gt;START" style="whiteSpace=wrap;html=1;rounded=1;" vertex="1" parent="1">
          <mxGeometry x="729" y="20" width="120" height="60" as="geometry" />
        </mxCell>
        <mxCell id="LlizrEOh4emh3B1AcPMM-37" value="Conveyor Belt&lt;br&gt;START" style="rounded=1;whiteSpace=wrap;html=1;" vertex="1" parent="1">
          <mxGeometry x="560" y="20" width="140" height="60" as="geometry" />
        </mxCell>
        <mxCell id="LlizrEOh4emh3B1AcPMM-42" style="edgeStyle=orthogonalEdgeStyle;rounded=0;orthogonalLoop=1;jettySize=auto;html=1;entryX=0.5;entryY=0;entryDx=0;entryDy=0;" edge="1" parent="1" source="LlizrEOh4emh3B1AcPMM-40" target="LlizrEOh4emh3B1AcPMM-21">
          <mxGeometry relative="1" as="geometry" />
        </mxCell>
        <mxCell id="LlizrEOh4emh3B1AcPMM-40" value="Ultrasonic sensor (SRF05) activate to check&lt;br&gt;the location of object in belt" style="rounded=1;whiteSpace=wrap;html=1;" vertex="1" parent="1">
          <mxGeometry x="693" y="150" width="192" height="80" as="geometry" />
        </mxCell>
        <mxCell id="LlizrEOh4emh3B1AcPMM-46" value="" style="edgeStyle=orthogonalEdgeStyle;rounded=0;orthogonalLoop=1;jettySize=auto;html=1;" edge="1" parent="1" source="LlizrEOh4emh3B1AcPMM-44" target="LlizrEOh4emh3B1AcPMM-28">
          <mxGeometry relative="1" as="geometry" />
        </mxCell>
        <mxCell id="LlizrEOh4emh3B1AcPMM-44" value="Object moving to under&lt;br&gt;of ultrasonic sensor" style="whiteSpace=wrap;html=1;rounded=1;" vertex="1" parent="1">
          <mxGeometry x="715.75" y="710" width="146.5" height="80" as="geometry" />
        </mxCell>
      </root>
    </mxGraphModel>
  </diagram>
</mxfile>
